<?xml version="1.0" encoding="UTF-8"?>
<!DOCTYPE svg PUBLIC "-//W3C//DTD SVG 1.1//EN" "http://www.w3.org/Graphics/SVG/1.1/DTD/svg11.dtd">
<svg xmlns="http://www.w3.org/2000/svg" version="1.1" width="500px" height="500px" style="shape-rendering:geometricPrecision; text-rendering:geometricPrecision; image-rendering:optimizeQuality; fill-rule:evenodd; clip-rule:evenodd" xmlns:xlink="http://www.w3.org/1999/xlink">
<g><path style="opacity:0.998" fill="#042940" d="M 196.5,28.5 C 200.042,28.1872 203.375,28.5206 206.5,29.5C 206.973,30.9063 207.973,31.573 209.5,31.5C 210.167,31.5 210.5,31.8333 210.5,32.5C 215.673,39.5045 219.839,47.1711 223,55.5C 226.659,66.4876 229.826,77.4876 232.5,88.5C 239.433,128.891 242.099,169.558 240.5,210.5C 240.493,248.229 235.493,285.229 225.5,321.5C 212.651,308.764 199.484,308.431 186,320.5C 182.967,324.892 180.8,329.559 179.5,334.5C 166.837,294.194 160.503,252.86 160.5,210.5C 160.5,193.5 160.5,176.5 160.5,159.5C 161.173,123.281 167.007,87.9476 178,53.5C 180.167,47.1562 183.333,41.4895 187.5,36.5C 188.5,36.1667 189.167,35.5 189.5,34.5C 189.328,33.5084 189.662,32.8417 190.5,32.5C 192.027,32.573 193.027,31.9063 193.5,30.5C 195.027,30.573 196.027,29.9063 196.5,28.5 Z"/></g>
<g><path style="opacity:0.306" fill="#8e99a2" d="M 196.5,28.5 C 196.027,29.9063 195.027,30.573 193.5,30.5C 193.973,29.0937 194.973,28.427 196.5,28.5 Z"/></g>
<g><path style="opacity:0.08" fill="#f5f7f9" d="M 206.5,29.5 C 208.027,29.427 209.027,30.0937 209.5,31.5C 207.973,31.573 206.973,30.9063 206.5,29.5 Z"/></g>
<g><path style="opacity:0.188" fill="#ccd3da" d="M 193.5,30.5 C 193.027,31.9063 192.027,32.573 190.5,32.5C 190.973,31.0937 191.973,30.427 193.5,30.5 Z"/></g>
<g><path style="opacity:0.045" fill="#fafbfd" d="M 189.5,34.5 C 189.167,35.5 188.5,36.1667 187.5,36.5C 187.5,35.1667 188.167,34.5 189.5,34.5 Z"/></g>
<g><path style="opacity:0.195" fill="#f6f8f9" d="M 210.5,32.5 C 216.743,38.6312 221.243,45.9645 224,54.5C 228.096,65.5505 230.929,76.8839 232.5,88.5C 229.826,77.4876 226.659,66.4876 223,55.5C 219.839,47.1711 215.673,39.5045 210.5,32.5 Z"/></g>
<g><path style="opacity:0.101" fill="#f8fafa" d="M 232.5,88.5 C 233.621,90.9542 234.454,93.6209 235,96.5C 240.874,133.939 243.374,171.606 242.5,209.5C 251.173,209.334 259.84,209.5 268.5,210C 271.036,210.186 273.369,210.686 275.5,211.5C 263.852,210.698 252.185,210.365 240.5,210.5C 242.099,169.558 239.433,128.891 232.5,88.5 Z"/></g>
<g><path style="opacity:0.103" fill="#eef1f2" d="M 160.5,159.5 C 160.5,176.5 160.5,193.5 160.5,210.5C 147.833,210.5 135.167,210.5 122.5,210.5C 134.655,209.505 146.989,209.171 159.5,209.5C 159.17,192.658 159.503,175.992 160.5,159.5 Z"/></g>
<g><path style="opacity:0.999" fill="#395d73" d="M 122.5,210.5 C 135.167,210.5 147.833,210.5 160.5,210.5C 160.503,252.86 166.837,294.194 179.5,334.5C 181.007,352.844 187.507,369.177 199,383.5C 202.365,387.693 205.865,391.693 209.5,395.5C 208.005,389.782 208.171,384.115 210,378.5C 213.922,370.984 218.589,363.984 224,357.5C 231.93,345.718 232.43,333.718 225.5,321.5C 235.493,285.229 240.493,248.229 240.5,210.5C 252.185,210.365 263.852,210.698 275.5,211.5C 279.078,211.549 282.411,212.215 285.5,213.5C 286.848,214.186 288.015,215.186 289,216.5C 290.011,215.663 291.178,215.33 292.5,215.5C 293.791,215.263 294.791,215.596 295.5,216.5C 297.214,217.738 299.214,218.405 301.5,218.5C 303.403,218.796 305.07,219.463 306.5,220.5C 307.514,221.674 308.847,222.34 310.5,222.5C 315.288,224.059 319.621,226.393 323.5,229.5C 324.344,231.759 326.011,232.759 328.5,232.5C 331.473,234.147 334.14,236.147 336.5,238.5C 337.262,240.262 338.596,241.262 340.5,241.5C 345.473,245.806 350.14,250.473 354.5,255.5C 354.738,257.404 355.738,258.738 357.5,259.5C 358.167,259.5 358.5,259.833 358.5,260.5C 358.427,262.027 359.094,263.027 360.5,263.5C 361.974,264.436 362.974,265.77 363.5,267.5C 363.427,269.027 364.094,270.027 365.5,270.5C 365.427,272.027 366.094,273.027 367.5,273.5C 368.338,273.842 368.672,274.508 368.5,275.5C 370.326,280.484 372.659,285.151 375.5,289.5C 380.275,302.931 383.608,316.597 385.5,330.5C 385.5,378.167 385.5,425.833 385.5,473.5C 337.499,473.667 289.499,473.5 241.5,473C 216.446,470.487 193.779,461.987 173.5,447.5C 172.415,445.413 170.749,444.08 168.5,443.5C 164.167,438.5 159.5,433.833 154.5,429.5C 153.5,429.167 152.833,428.5 152.5,427.5C 151.92,425.251 150.587,423.585 148.5,422.5C 148.262,420.596 147.262,419.262 145.5,418.5C 145.573,416.973 144.906,415.973 143.5,415.5C 143.25,413.326 142.25,411.659 140.5,410.5C 140.25,408.326 139.25,406.659 137.5,405.5C 135.659,403.151 134.326,400.485 133.5,397.5C 133.598,395.447 132.931,393.78 131.5,392.5C 130.463,391.07 129.796,389.403 129.5,387.5C 130.962,384.358 130.295,382.358 127.5,381.5C 125.306,375.371 123.806,369.038 123,362.5C 122.5,311.834 122.333,261.168 122.5,210.5 Z"/></g>
<g><path style="opacity:0.808" fill="#a9b7bf" d="M 285.5,213.5 C 288.152,213.41 290.485,214.076 292.5,215.5C 291.178,215.33 290.011,215.663 289,216.5C 288.015,215.186 286.848,214.186 285.5,213.5 Z"/></g>
<g><path style="opacity:0.026" fill="#e5eaed" d="M 295.5,216.5 C 297.898,216.259 299.898,216.926 301.5,218.5C 299.214,218.405 297.214,217.738 295.5,216.5 Z"/></g>
<g><path style="opacity:0.014" fill="#f7f7fa" d="M 306.5,220.5 C 308.38,220.229 309.713,220.896 310.5,222.5C 308.847,222.34 307.514,221.674 306.5,220.5 Z"/></g>
<g><path style="opacity:0.835" fill="#96a9b5" d="M 323.5,229.5 C 325.674,229.75 327.341,230.75 328.5,232.5C 326.011,232.759 324.344,231.759 323.5,229.5 Z"/></g>
<g><path style="opacity:0.033" fill="#f3f7f9" d="M 336.5,238.5 C 338.404,238.738 339.738,239.738 340.5,241.5C 338.596,241.262 337.262,240.262 336.5,238.5 Z"/></g>
<g><path style="opacity:0.052" fill="#f7f9fa" d="M 354.5,255.5 C 356.262,256.262 357.262,257.596 357.5,259.5C 355.738,258.738 354.738,257.404 354.5,255.5 Z"/></g>
<g><path style="opacity:0.145" fill="#f4f4f9" d="M 358.5,260.5 C 359.906,260.973 360.573,261.973 360.5,263.5C 359.094,263.027 358.427,262.027 358.5,260.5 Z"/></g>
<g><path style="opacity:0.059" fill="#fafcfc" d="M 363.5,267.5 C 364.906,267.973 365.573,268.973 365.5,270.5C 364.094,270.027 363.427,269.027 363.5,267.5 Z"/></g>
<g><path style="opacity:0.047" fill="#fdfffe" d="M 365.5,270.5 C 366.906,270.973 367.573,271.973 367.5,273.5C 366.094,273.027 365.427,272.027 365.5,270.5 Z"/></g>
<g><path style="opacity:0.071" fill="#fbfdfc" d="M 368.5,275.5 C 371.874,279.581 374.207,284.247 375.5,289.5C 372.659,285.151 370.326,280.484 368.5,275.5 Z"/></g>
<g><path style="opacity:0.174" fill="#f9fafb" d="M 375.5,289.5 C 381.869,302.324 385.202,315.991 385.5,330.5C 383.608,316.597 380.275,302.931 375.5,289.5 Z"/></g>
<g><path style="opacity:1" fill="#d7c58e" d="M 225.5,321.5 C 232.43,333.718 231.93,345.718 224,357.5C 218.589,363.984 213.922,370.984 210,378.5C 208.171,384.115 208.005,389.782 209.5,395.5C 205.865,391.693 202.365,387.693 199,383.5C 187.507,369.177 181.007,352.844 179.5,334.5C 180.8,329.559 182.967,324.892 186,320.5C 199.484,308.431 212.651,308.764 225.5,321.5 Z"/></g>
<g><path style="opacity:1" fill="#03293f" d="M 205.5,356.5 C 199.748,358.028 194.748,356.694 190.5,352.5C 185.094,343.967 184.261,334.967 188,325.5C 196.993,317.203 205.66,317.536 214,326.5C 217.41,333.817 216.743,340.817 212,347.5C 209.615,350.379 207.448,353.379 205.5,356.5 Z"/></g>
<g><path style="opacity:1" fill="#3b5e72" d="M 190.5,352.5 C 194.748,356.694 199.748,358.028 205.5,356.5C 203.124,360.456 201.957,364.789 202,369.5C 197.156,364.467 193.323,358.8 190.5,352.5 Z"/></g>
<g><path style="opacity:1" fill="#d8c58e" d="M 209.5,395.5 C 223.841,417.332 244.174,426.832 270.5,424C 305.162,415.643 322.329,393.477 322,357.5C 333.437,381.39 331.437,404.056 316,425.5C 296.351,446.62 272.851,452.454 245.5,443C 224.663,433.81 212.663,417.977 209.5,395.5 Z"/></g>
<g><path style="opacity:0.806" fill="#97a9b4" d="M 127.5,381.5 C 130.295,382.358 130.962,384.358 129.5,387.5C 128.542,385.698 127.875,383.698 127.5,381.5 Z"/></g>
<g><path style="opacity:0.078" fill="#f9fcfc" d="M 131.5,392.5 C 132.931,393.78 133.598,395.447 133.5,397.5C 132.069,396.22 131.402,394.553 131.5,392.5 Z"/></g>
<g><path style="opacity:0.13" fill="#f7f9fa" d="M 137.5,405.5 C 139.25,406.659 140.25,408.326 140.5,410.5C 138.75,409.341 137.75,407.674 137.5,405.5 Z"/></g>
<g><path style="opacity:0.113" fill="#f4f6f6" d="M 140.5,410.5 C 142.25,411.659 143.25,413.326 143.5,415.5C 141.75,414.341 140.75,412.674 140.5,410.5 Z"/></g>
<g><path style="opacity:0.114" fill="#fefffe" d="M 143.5,415.5 C 144.906,415.973 145.573,416.973 145.5,418.5C 144.094,418.027 143.427,417.027 143.5,415.5 Z"/></g>
<g><path style="opacity:0.098" fill="#fdfffe" d="M 145.5,418.5 C 147.262,419.262 148.262,420.596 148.5,422.5C 146.738,421.738 145.738,420.404 145.5,418.5 Z"/></g>
<g><path style="opacity:0.196" fill="#f2fafc" d="M 148.5,422.5 C 150.587,423.585 151.92,425.251 152.5,427.5C 150.413,426.415 149.08,424.749 148.5,422.5 Z"/></g>
<g><path style="opacity:0.155" fill="#fdfefe" d="M 154.5,429.5 C 159.5,433.833 164.167,438.5 168.5,443.5C 162.833,439.833 158.167,435.167 154.5,429.5 Z"/></g>
<g><path style="opacity:0.099" fill="#fcfdfd" d="M 168.5,443.5 C 170.749,444.08 172.415,445.413 173.5,447.5C 171.251,446.92 169.585,445.587 168.5,443.5 Z"/></g>
<g><path style="opacity:0.302" fill="#fdfefe" d="M 173.5,447.5 C 193.779,461.987 216.446,470.487 241.5,473C 289.499,473.5 337.499,473.667 385.5,473.5C 362.009,474.833 338.176,475.5 314,475.5C 287.142,475.625 260.309,475.125 233.5,474C 210.948,470.446 190.948,461.613 173.5,447.5 Z"/></g>
</svg>
